<svg width="24" height="24" viewBox="0 0 24 24" fill="none" xmlns="http://www.w3.org/2000/svg">
<rect width="24" height="24" fill="black" fill-opacity="0"/>
<rect width="12" height="8" fill="black" fill-opacity="0" transform="translate(6 8)"/>
<path d="M10 8L6 12L10 16" stroke="#B7B7B7" stroke-width="3" stroke-linecap="round" stroke-linejoin="round"/>
<path d="M7.5 12H18" stroke="#B7B7B7" stroke-width="3" stroke-linecap="round" stroke-linejoin="round"/>
<path fill-rule="evenodd" clip-rule="evenodd" d="M11.0607 9.06068C11.6465 8.47489 11.6465 7.52512 11.0607 6.93934C10.4749 6.35355 9.52518 6.35355 8.93936 6.93934L4.93936 10.9393C4.35355 11.5251 4.35355 12.4749 4.93936 13.0607L8.93936 17.0607C9.52518 17.6465 10.4749 17.6465 11.0607 17.0607C11.6465 16.4749 11.6465 15.5251 11.0607 14.9393L9.62137 13.5H18C18.8284 13.5 19.5 12.8284 19.5 12C19.5 11.1716 18.8284 10.5 18 10.5H9.62137L11.0607 9.06068Z" fill="black"/>
</svg>
