<svg xmlns="http://www.w3.org/2000/svg" width="24" height="24" viewBox="0 0 24 24" class="a">
<style>
  .a{
    fill:none;
  }
  .b{
    stroke-linejoin:round;
    stroke-width:3;
    stroke:#B7B7B7;
  }
</style>
  <rect width="24" height="24" class="a"/>
  <rect width="12" height="8" class="a"/>
  <path d="M10 8L6 12 10 16" class="b"/>
  <path d="M7.5 12H18" class="b"/>
  <path d="M11.1 9.1C11.6 8.5 11.6 7.5 11.1 6.9 10.5 6.4 9.5 6.4 8.9 6.9L4.9 10.9C4.4 11.5 4.4 12.5 4.9 13.1L8.9 17.1C9.5 17.6 10.5 17.6 11.1 17.1 11.6 16.5 11.6 15.5 11.1 14.9L9.6 13.5H18C18.8 13.5 19.5 12.8 19.5 12 19.5 11.2 18.8 10.5 18 10.5H9.6L11.1 9.1Z" fill="black"/>
</svg>
