<svg xmlns="http://www.w3.org/2000/svg" width="32" height="32" viewBox="0 0 32 32" fill="none"><path d="M25 7.5C25 7.1 24.8 6.7 24.4 6.6L18.4 4.1C18.1 4 17.7 4 17.5 4.2L13.5 6.7C13.2 6.9 13 7.2 13 7.6V16.1L10.4 15.1C10.1 15 9.7 15 9.5 15.2L5.5 17.7C5.2 17.9 5 18.2 5 18.6 5 19.7 5 22 5 22 5 25.6 11 28 13.4 28.9 13.6 29 13.8 29.1 14 29.1 15.6 29.8 17.2 29.7 18.3 29.4 21.9 28.3 25 24.3 25 17V7.5ZM24 7.8V17C24 31 12 31 12 24.5V21.3C12 21.1 11.9 20.9 11.7 20.9L6.9 18.9C6.5 18.7 6.5 18.2 6.8 18L9.8 16.1C9.9 16.1 10.1 16 10.2 16.1 10.9 16.4 13 17.2 15.7 18.4 15.9 18.4 16 18.6 16 18.8V22C16 25.5 20 24 20 19.5V10.3C20 10.1 19.9 9.9 19.7 9.9L14.9 7.9C14.5 7.7 14.5 7.2 14.8 7L17.8 5.1C17.9 5.1 18.1 5 18.2 5.1L23.7 7.4C23.9 7.4 24 7.6 24 7.8Z" fill="#040402"/></svg>